<svg xmlns="http://www.w3.org/2000/svg" viewBox="0 0 960 720">
<defs>
<linearGradient id="back" x2="0" y2="1"><stop stop-color="#153f3a"/><stop offset="1" stop-color="#698576"/></linearGradient>
<linearGradient id="floor" x2="0" y2="1"><stop stop-color="#5e7d6b"/><stop offset="1" stop-color="#183f36"/></linearGradient>
<linearGradient id="left"><stop stop-color="#16352e"/><stop offset="1" stop-color="#527c68"/></linearGradient>
<linearGradient id="right"><stop stop-color="#446951"/><stop offset="1" stop-color="#15382e"/></linearGradient>
<radialGradient id="light"><stop stop-color="#dafac5" stop-opacity=".2"/><stop offset="1" stop-color="#b1cf9c" stop-opacity="0"/></radialGradient>
<pattern id="grain" width="5" height="5" patternUnits="userSpaceOnUse"><circle cx="1" cy="1" r=".6" fill="#fff" opacity=".045"/></pattern>
</defs>
<rect width="960" height="720" fill="url(#back)"/>
<path d="M0 0h960L615 155H345Z" fill="#284d42"/>
<path d="M0 720h960L615 449H345Z" fill="url(#floor)"/>
<path d="M0 0 345 155v294L0 720Z" fill="url(#left)"/>
<path d="m960 0-345 155v294l345 271Z" fill="url(#right)"/>
<path d="M0 720 345 449h270l345 271M0 0l345 155h270L960 0" fill="none" stroke="#aac995" stroke-opacity=".25"/>
<rect x="403" y="218" width="159" height="231" rx="1" fill="#25473b"/>
<rect x="413" y="227" width="139" height="212" fill="#809c76" opacity=".25"/>
<path d="M483 229v205m-64-100h128" stroke="#e0eccc" opacity=".14"/>
<rect x="477" y="344" width="5" height="24" rx="2" fill="#b3c491" opacity=".5"/>
<path d="m43 128 129 37v371L43 608Z" fill="#416a55" stroke="#9fb88d" stroke-opacity=".25"/>
<path d="m54 144 104 29v355L54 585Z" fill="#223f32"/>
<path d="m209 180 65 20v274l-65 37Z" fill="#234b3d" stroke="#9fb88d" stroke-opacity=".25"/>
<path d="m743 161 122-37v229l-122 0Z" fill="#a6bd90" opacity=".2"/>
<path d="m755 174 98-30v189l-98 3Zm42-13v172m-44-82 100-14" fill="none" stroke="#d0ddaf" stroke-opacity=".4" stroke-width="4"/>
<path d="M190 720 405 449m365 271L555 449M0 662h960M126 570h708M226 503h508" stroke="#bad0a6" stroke-opacity=".12" fill="none"/>
<path d="m460 15 36 0 10 105h-28Z" fill="#e3fbc9" opacity=".75"/>
<path d="m467 143 34 0 7 19h-33Z" fill="#deefbc" opacity=".5"/>
<ellipse cx="488" cy="240" rx="330" ry="360" fill="url(#light)"/>
<g fill="#203c2f"><path d="M756 484h57l-9 64h-38Z"/><path d="M784 490c-4-62-62-68-60-96 43-4 64 45 60 96Zm0-12c-13-66 28-99 51-89 11 34-34 54-51 89Z" fill="#598663"/><path d="M784 490c20-39 55-28 58-55-31-9-47 30-58 55Z" fill="#7c9b6c"/></g>
<rect width="960" height="720" fill="url(#grain)"/>
<rect width="960" height="720" fill="#071e19" opacity=".13"/>
</svg>
